<?xml version="1.0" encoding="UTF-8"?>
<svg width="69px" height="82px" viewBox="0 0 69 82" version="1.1" xmlns="http://www.w3.org/2000/svg" xmlns:xlink="http://www.w3.org/1999/xlink">
    <title>Path</title>
    <g id="Page-1" stroke="none" stroke-width="1" fill="none" fill-rule="evenodd">
        <path d="M23.233284,78.5227051 C19.5102234,71.6220995 16.6240234,54.6404495 9.35666656,43.4125519 C2.08930969,32.1846542 -0.123954773,28.7735291 2.13625336,26.8811417 C4.39646149,24.9887543 8.76812744,31.3791656 11.750061,35.3668976 C14.7319946,39.3546295 16.4719238,43.0464001 16.9675369,42.5840263 C17.46315,42.1216526 15.2276535,33.3415651 12.29216,28.7514801 C9.35666656,24.1613951 4.86963654,14.7987461 7.45181274,12.3364525 C10.033989,9.87415886 14.7731705,15.9622135 16.4117241,20.433567 C18.0502777,24.9049206 23.966156,36.5817108 24.6668472,36.2115898 C25.3675385,35.8414688 23.5958023,25.7728424 21.5551376,19.0546474 C19.514473,12.3364525 16.8405533,3.11355209 20.7537003,1.75222492 C24.6668472,0.390897751 27.8694611,8.73353577 28.9815369,16.616045 C30.0936127,24.4985542 33.7234497,33.5056725 34.6725235,33.5056725 C35.6215973,33.5056725 35.9814529,23.9246445 35.632843,17.7889404 C35.2842331,11.6532364 36.3722305,1.75222492 38.7547913,1.75222492 C41.137352,1.75222492 42.6082916,1.18241119 43.7461472,20.433567 C44.5047175,33.2676709 46.4209442,42.5751063 49.4948273,48.3558731 C54.0624644,41.3059998 57.4670512,36.3559329 59.7085876,33.5056725 C63.0708923,29.2302818 65.5410004,29.772419 66.670784,30.4192314 C67.8005676,31.0660439 69.2763367,35.1865845 64.4924622,43.4125519 C59.7085876,51.6385193 52.1138077,70.5920868 49.8305588,72.9740715 C47.5473099,75.3560562 26.9563446,85.4233107 23.233284,78.5227051 Z" id="Path" stroke="#000000" stroke-width="2"></path>
    </g>
</svg>